<?xml version="1.0" encoding="utf-8"?>
<!-- Generator: Adobe Illustrator 22.1.0, SVG Export Plug-In . SVG Version: 6.00 Build 0)  -->
<svg version="1.1" id="Layer_1" xmlns="http://www.w3.org/2000/svg" xmlns:xlink="http://www.w3.org/1999/xlink" x="0px" y="0px"
	 viewBox="0 0 443 443" style="enable-background:new 0 0 443 443;" xml:space="preserve">
<path d="M169.7,342.1c0,4.1,1.2,8.1,3.5,11.5l11.1,16.7c3.8,5.8,10.3,9.3,17.3,9.3h40c6.9,0,13.4-3.5,17.3-9.3l11.1-16.7
	c2.3-3.4,3.5-7.4,3.5-11.5v-24.9H169.6L169.7,342.1z M107.4,161.6c0,28.8,10.7,55,28.2,75.1c10.7,12.2,27.5,37.8,33.9,59.3
	c0,0.2,0,0.3,0.1,0.5h103.9c0-0.2,0-0.3,0.1-0.5c6.4-21.5,23.1-47.1,33.9-59.3c17.6-20.1,28.2-46.3,28.2-75.1
	c0-63.1-51.3-114.3-114.5-114.1C155,47.7,107.4,101.3,107.4,161.6z M221.5,109.8c-28.6,0-51.9,23.3-51.9,51.9
	c0,5.7-4.6,10.4-10.4,10.4s-10.4-4.6-10.4-10.4c0-40,32.6-72.6,72.6-72.6c5.7,0,10.4,4.6,10.4,10.4
	C231.9,105.1,227.2,109.8,221.5,109.8z"/>
</svg>
