<?xml version="1.0" encoding="utf-8"?>
<!-- Generator: Adobe Illustrator 22.1.0, SVG Export Plug-In . SVG Version: 6.00 Build 0)  -->
<svg version="1.1" id="Layer_1" xmlns="http://www.w3.org/2000/svg" xmlns:xlink="http://www.w3.org/1999/xlink" x="0px" y="0px"
	 viewBox="0 0 443 443" style="enable-background:new 0 0 443 443;" xml:space="preserve">
<path d="M221.5,99.7c-34.2,0-62.1,27.8-62.1,62.1c0,5.7,4.6,10.3,10.3,10.3s10.3-4.6,10.3-10.3c0-22.8,18.6-41.4,41.4-41.4
	c5.7,0,10.3-4.6,10.3-10.3C231.7,104.4,227.2,99.7,221.5,99.7z M169.8,344.8c0,2,0.6,4,1.7,5.7l15.8,23.8c1.9,2.9,5.2,4.6,8.6,4.6
	h51c3.5,0,6.7-1.7,8.6-4.6l15.8-23.8c1.1-1.7,1.7-3.7,1.7-5.7v-27.9H169.8V344.8z M221.5,48c-66.1,0-113.8,53.6-113.8,113.8
	c0,28.7,10.6,54.9,28.2,74.8c10.8,12.3,27.6,38,33.9,59.6l0,0h31v-0.1c0-3.1-0.5-6.1-1.4-9.1c-3.6-11.5-14.8-41.9-40.2-70.9
	c-13.3-15.1-20.4-34.4-20.4-54.4c-0.2-47.5,38.5-82.7,82.7-82.7c45.6,0,82.7,37.1,82.7,82.7c0,20-7.3,39.3-20.5,54.4
	c-25.3,28.8-36.5,59.1-40.1,70.8c-0.9,3-1.4,6.1-1.4,9.2v0.1h31l0,0c6.3-21.6,23.1-47.3,33.9-59.6c17.5-20,28.2-46.2,28.2-74.9
	C335.3,98.9,284.3,48,221.5,48z"/>
<g>
	<path d="M101.6,195l-78.7,35.8c-6,2.7-8.7,9.9-6,15.9l5.7,12.5c2.7,6,9.9,8.7,15.9,6l78.7-35.8C110.4,218.9,105,207.3,101.6,195z"
		/>
	<path d="M426,75.6l-5.7-12.5c-2.7-6-9.9-8.7-15.9-6L325.8,93c6.8,10.5,12.2,22,15.6,34.3l78.7-35.8C426.1,88.7,428.7,81.6,426,75.6
		z"/>
</g>
<g>
	<path d="M433.7,142.3h-89c0.9,6.1,1.4,12.4,1.4,18.9c0,6.4-0.5,12.7-1.4,18.9h89c6.6,0,12-5.4,12-12v-13.7
		C445.7,147.7,440.3,142.3,433.7,142.3z"/>
	<path d="M96.9,161.1c0-6.4,0.5-12.7,1.4-18.9H14.5c-6.6,0-12,5.4-12,12V168c0,6.6,5.4,12,12,12h83.8
		C97.4,173.8,96.9,167.5,96.9,161.1z"/>
</g>
<g>
	<path d="M119.3,89.9L41.7,51.8c-5.9-2.9-13.2-0.4-16.1,5.5l-6,12.3c-2.9,5.9-0.4,13.2,5.5,16.1l77.6,38.1
		C106.4,111.6,112.1,100.2,119.3,89.9z"/>
	<path d="M417.9,236.6l-77.6-38.1c-3.8,12.2-9.5,23.6-16.6,33.8l77.6,38.1c5.9,2.9,13.2,0.4,16.1-5.5l6-12.3
		C426.3,246.7,423.9,239.5,417.9,236.6z"/>
</g>
</svg>
